<svg width="20" height="20" viewBox="0 0 20 20" fill="none" xmlns="http://www.w3.org/2000/svg">
<path d="M12 3C14.8284 3 16.2434 3.00023 17.1221 3.87891C18.0004 4.75761 18 6.17194 18 9V9.40039H13.2002C11.8747 9.40039 10.7998 10.4752 10.7998 11.8008C10.8 13.1261 11.8748 14.2002 13.2002 14.2002H18C18 14.386 18.0002 14.4791 17.9961 14.5576C17.9157 16.0909 16.6905 17.3161 15.1572 17.3965C15.0788 17.4006 14.9855 17.4004 14.7998 17.4004H8C5.17157 17.4004 3.75661 17.4002 2.87793 16.5215C1.99966 15.6428 2 14.2284 2 11.4004V9C2 6.17192 1.99958 4.75761 2.87793 3.87891C3.75661 3.00023 5.17157 3 8 3H12Z" fill="#5C08B1"/>
<path d="M5.99976 7H8.39985" stroke="#EFCC27" stroke-width="2" stroke-linecap="round"/>
<path d="M14.0001 11.8002H13.2001" stroke="#EFCC27" stroke-width="2" stroke-linecap="round"/>
</svg>
