<svg width="20" height="20" viewBox="0 0 20 20" fill="none" xmlns="http://www.w3.org/2000/svg">
<mask id="mask0_379_1674" style="mask-type:alpha" maskUnits="userSpaceOnUse" x="0" y="0" width="20" height="20">
<rect width="20" height="20" fill="#D9D9D9"/>
</mask>
<g mask="url(#mask0_379_1674)">
<path d="M4.75654 16.5833C4.38682 16.5833 4.07105 16.4525 3.80925 16.1908C3.54758 15.929 3.41675 15.6133 3.41675 15.2435V4.75645C3.41675 4.38673 3.54758 4.07096 3.80925 3.80916C4.07105 3.54749 4.38682 3.41666 4.75654 3.41666H15.2436C15.6133 3.41666 15.9291 3.54749 16.1909 3.80916C16.4526 4.07096 16.5834 4.38673 16.5834 4.75645V6.98249H15.5001V4.75645C15.5001 4.68159 15.4761 4.62013 15.428 4.57207C15.3799 4.52402 15.3185 4.49999 15.2436 4.49999H4.75654C4.68168 4.49999 4.62022 4.52402 4.57216 4.57207C4.52411 4.62013 4.50008 4.68159 4.50008 4.75645V15.2435C4.50008 15.3184 4.52411 15.3799 4.57216 15.4279C4.62022 15.476 4.68168 15.5 4.75654 15.5H15.2436C15.3185 15.5 15.3799 15.476 15.428 15.4279C15.4761 15.3799 15.5001 15.3184 15.5001 15.2435V12.9967H16.5834V15.2435C16.5834 15.6133 16.4526 15.929 16.1909 16.1908C15.9291 16.4525 15.6133 16.5833 15.2436 16.5833H4.75654ZM10.7565 13.5833C10.3868 13.5833 10.0711 13.4525 9.80925 13.1908C9.54758 12.929 9.41675 12.6133 9.41675 12.2435V7.75645C9.41675 7.38673 9.54758 7.07096 9.80925 6.80916C10.0711 6.54749 10.3868 6.41666 10.7565 6.41666H16.2436C16.6133 6.41666 16.9291 6.54749 17.1909 6.80916C17.4526 7.07096 17.5834 7.38673 17.5834 7.75645V12.2435C17.5834 12.6133 17.4526 12.929 17.1909 13.1908C16.9291 13.4525 16.6133 13.5833 16.2436 13.5833H10.7565ZM16.2436 12.5C16.3185 12.5 16.3799 12.476 16.428 12.4279C16.4761 12.3799 16.5001 12.3184 16.5001 12.2435V7.75645C16.5001 7.68159 16.4761 7.62013 16.428 7.57207C16.3799 7.52402 16.3185 7.49999 16.2436 7.49999H10.7565C10.6817 7.49999 10.6202 7.52402 10.5722 7.57207C10.5241 7.62013 10.5001 7.68159 10.5001 7.75645V12.2435C10.5001 12.3184 10.5241 12.3799 10.5722 12.4279C10.6202 12.476 10.6817 12.5 10.7565 12.5H16.2436ZM13.5001 11.25C13.8473 11.25 14.1424 11.1285 14.3855 10.8854C14.6286 10.6424 14.7501 10.3472 14.7501 9.99999C14.7501 9.65277 14.6286 9.35763 14.3855 9.11457C14.1424 8.87152 13.8473 8.74999 13.5001 8.74999C13.1529 8.74999 12.8577 8.87152 12.6147 9.11457C12.3716 9.35763 12.2501 9.65277 12.2501 9.99999C12.2501 10.3472 12.3716 10.6424 12.6147 10.8854C12.8577 11.1285 13.1529 11.25 13.5001 11.25Z" fill="#1C1B1F"/>
</g>
</svg>
