<svg width="20" height="20" viewBox="0 0 20 20" fill="none" xmlns="http://www.w3.org/2000/svg">
<mask id="mask0_379_1671" style="mask-type:alpha" maskUnits="userSpaceOnUse" x="0" y="0" width="20" height="20">
<rect width="20" height="20" fill="#D9D9D9"/>
</mask>
<g mask="url(#mask0_379_1671)">
<path d="M4.75654 16.5833C4.3814 16.5833 4.06432 16.4538 3.80529 16.1948C3.54626 15.9358 3.41675 15.6187 3.41675 15.2435V4.75645C3.41675 4.38131 3.54626 4.06423 3.80529 3.8052C4.06432 3.54617 4.3814 3.41666 4.75654 3.41666H8.52737C8.51029 3.0043 8.64779 2.65124 8.93987 2.35749C9.23196 2.0636 9.58557 1.91666 10.0007 1.91666C10.4158 1.91666 10.7692 2.0636 11.0609 2.35749C11.3526 2.65124 11.4899 3.0043 11.4728 3.41666H15.2436C15.6188 3.41666 15.9358 3.54617 16.1949 3.8052C16.4539 4.06423 16.5834 4.38131 16.5834 4.75645V15.2435C16.5834 15.6187 16.4539 15.9358 16.1949 16.1948C15.9358 16.4538 15.6188 16.5833 15.2436 16.5833H4.75654ZM10.0001 4.0802C10.1445 4.0802 10.264 4.03298 10.3584 3.93853C10.4529 3.84409 10.5001 3.72464 10.5001 3.5802C10.5001 3.43575 10.4529 3.31631 10.3584 3.22187C10.264 3.12742 10.1445 3.0802 10.0001 3.0802C9.85564 3.0802 9.73619 3.12742 9.64175 3.22187C9.5473 3.31631 9.50008 3.43575 9.50008 3.5802C9.50008 3.72464 9.5473 3.84409 9.64175 3.93853C9.73619 4.03298 9.85564 4.0802 10.0001 4.0802ZM4.50008 14.556C5.27786 13.9171 6.13897 13.4414 7.08341 13.1289C8.02786 12.8164 9.00008 12.6602 10.0001 12.6602C11.0001 12.6602 11.9723 12.813 12.9167 13.1185C13.8612 13.4241 14.7223 13.9033 15.5001 14.556V4.75645C15.5001 4.69228 15.4733 4.63353 15.4199 4.5802C15.3665 4.52673 15.3078 4.49999 15.2436 4.49999H4.75654C4.69237 4.49999 4.63362 4.52673 4.58029 4.5802C4.52682 4.63353 4.50008 4.69228 4.50008 4.75645V14.556ZM10.0051 11.5321C10.7816 11.5321 11.4402 11.2601 11.9809 10.716C12.5215 10.1721 12.7917 9.51193 12.7917 8.73541C12.7917 7.95888 12.5197 7.30027 11.9757 6.75957C11.4318 6.21902 10.7716 5.94874 9.99508 5.94874C9.21855 5.94874 8.55994 6.22075 8.01925 6.76478C7.47869 7.30867 7.20841 7.96888 7.20841 8.74541C7.20841 9.52193 7.48043 10.1805 8.02446 10.7212C8.56835 11.2618 9.22855 11.5321 10.0051 11.5321ZM5.05612 15.5H14.944V15.5321C14.2303 14.9444 13.4528 14.4994 12.6115 14.1971C11.7702 13.8947 10.8997 13.7435 10.0001 13.7435C9.11119 13.7435 8.24821 13.8934 7.41112 14.1931C6.57404 14.4928 5.78904 14.9338 5.05612 15.516V15.5ZM10.0001 10.4487C9.52994 10.4487 9.12772 10.2815 8.79341 9.94707C8.45897 9.61277 8.29175 9.21055 8.29175 8.74041C8.29175 8.27027 8.45897 7.86805 8.79341 7.53374C9.12772 7.1993 9.52994 7.03207 10.0001 7.03207C10.4702 7.03207 10.8724 7.1993 11.2067 7.53374C11.5412 7.86805 11.7084 8.27027 11.7084 8.74041C11.7084 9.21055 11.5412 9.61277 11.2067 9.94707C10.8724 10.2815 10.4702 10.4487 10.0001 10.4487Z" fill="#1C1B1F"/>
</g>
</svg>
