<svg width="20" height="20" viewBox="0 0 20 20" fill="none" xmlns="http://www.w3.org/2000/svg">
<path d="M9.0126 15.5002C9.15567 12.6757 10.5251 10 13.5 10C16.4749 10 17.8443 12.6757 17.9874 15.5002C18.0014 15.7759 17.7761 16 17.5 16H9.5C9.22386 16 8.99863 15.7759 9.0126 15.5002Z" fill="#EFCC27"/>
<path d="M2.0126 15.5002C2.15567 12.6757 3.52513 10 6.5 10C9.47487 10 10.8443 12.6757 10.9874 15.5002C11.0014 15.7759 10.7761 16 10.5 16H2.5C2.22386 16 1.99863 15.7759 2.0126 15.5002Z" fill="#EFCC27"/>
<circle cx="13.5" cy="6.5" r="2.5" fill="#EFCC27"/>
<circle cx="2.5" cy="2.5" r="2.5" transform="matrix(-1 0 0 1 9 4)" fill="#EFCC27"/>
<path d="M5.01399 16.5002C5.17295 13.6757 6.69457 11 10 11C13.3054 11 14.827 13.6757 14.986 16.5002C15.0015 16.7759 14.7761 17 14.5 17H5.5C5.22386 17 4.99848 16.7759 5.01399 16.5002Z" fill="#5C08B1"/>
<circle cx="10" cy="7" r="3" fill="#5C08B1"/>
</svg>
