<svg width="20" height="20" viewBox="0 0 20 20" fill="none" xmlns="http://www.w3.org/2000/svg">
<path d="M2 2H3.62563C4.193 2 4.47669 2 4.70214 2.12433C4.79511 2.17561 4.87933 2.24136 4.95162 2.31912C5.12692 2.50769 5.19573 2.7829 5.33333 3.33333L5.51493 4.05972C5.616 4.46402 5.66654 4.66617 5.74455 4.83576C6.01534 5.42449 6.5546 5.84553 7.19144 5.96546C7.37488 6 7.58326 6 8 6V6" stroke="#5C08B1" stroke-width="2" stroke-linecap="round"/>
<path d="M16 15H5.55091C5.40471 15 5.33162 15 5.27616 14.9938C4.68857 14.928 4.28605 14.3695 4.40945 13.7913C4.42109 13.7367 4.44421 13.6674 4.49044 13.5287V13.5287C4.54177 13.3747 4.56743 13.2977 4.59579 13.2298C4.88607 12.5342 5.54277 12.0608 6.29448 12.0054C6.3679 12 6.44906 12 6.61137 12H12" stroke="#5C08B1" stroke-width="2" stroke-linecap="round" stroke-linejoin="round"/>
<path d="M13.7639 12H7.69425C6.71658 12 5.8822 11.2932 5.72147 10.3288L5.2911 7.7466C5.13872 6.8323 5.84378 6 6.77069 6H16.382C17.1253 6 17.6088 6.78231 17.2764 7.44721L15.5528 10.8944C15.214 11.572 14.5215 12 13.7639 12Z" fill="#EFCC27" stroke="#5C08B1" stroke-width="2" stroke-linecap="round"/>
<circle cx="15" cy="18" r="1" fill="#5C08B1"/>
<circle cx="7" cy="18" r="1" fill="#5C08B1"/>
</svg>
