<svg width="20" height="20" viewBox="0 0 20 20" fill="none" xmlns="http://www.w3.org/2000/svg">
<mask id="mask0_379_1680" style="mask-type:alpha" maskUnits="userSpaceOnUse" x="0" y="0" width="20" height="20">
<rect width="20" height="20" fill="#D9D9D9"/>
</mask>
<g mask="url(#mask0_379_1680)">
<path d="M14.968 10.5417V9.45834H17.6475V10.5417H14.968ZM15.774 16.0673L13.5721 14.5513L14.2067 13.6588L16.4086 15.1746L15.774 16.0673ZM14.1538 6.30938L13.54 5.41668L15.7419 3.90063L16.3559 4.79334L14.1538 6.30938ZM4.20837 15.5673V11.6475H3.69233C3.32261 11.6475 3.00691 11.5166 2.74525 11.2548C2.48344 10.9931 2.35254 10.6774 2.35254 10.3077V9.6923C2.35254 9.32258 2.48344 9.00689 2.74525 8.74522C3.00691 8.48341 3.32261 8.35251 3.69233 8.35251H6.47608L10.6475 5.87501V14.125L6.60108 11.6475H5.79171V15.5673H4.20837ZM9.56421 12.1748V7.78355L6.78046 9.43584H3.69233C3.6283 9.43584 3.56955 9.46258 3.51608 9.51605C3.46261 9.56952 3.43587 9.62827 3.43587 9.6923V10.3077C3.43587 10.3717 3.46261 10.4305 3.51608 10.484C3.56955 10.5374 3.6283 10.5642 3.69233 10.5642H6.92629L9.56421 12.1748ZM11.968 12.2452V7.7548C12.2393 8.023 12.4471 8.35765 12.5913 8.75876C12.7356 9.16001 12.8077 9.57376 12.8077 10C12.8077 10.4263 12.7356 10.84 12.5913 11.2413C12.4471 11.6424 12.2393 11.977 11.968 12.2452Z" fill="#1C1B1F"/>
</g>
</svg>
