<svg width="20" height="20" viewBox="0 0 20 20" fill="none" xmlns="http://www.w3.org/2000/svg">
<mask id="mask0_379_1668" style="mask-type:alpha" maskUnits="userSpaceOnUse" x="0" y="0" width="20" height="20">
<rect width="20" height="20" fill="#D9D9D9"/>
</mask>
<g mask="url(#mask0_379_1668)">
<path d="M8.41658 17.5833V16.5H18.5832V17.5833H8.41658ZM9.39574 15.3606C9.39574 14.3296 9.73449 13.4336 10.412 12.6725C11.0896 11.9115 11.9384 11.4592 12.9582 11.3156V11.0706C12.9582 10.9402 13.0101 10.8173 13.1139 10.7019C13.2175 10.5866 13.3462 10.529 13.4999 10.529C13.6302 10.529 13.753 10.5866 13.8685 10.7019C13.9839 10.8173 14.0416 10.9402 14.0416 11.0706V11.3365C15.033 11.469 15.8711 11.9158 16.556 12.6769C17.2408 13.4378 17.5832 14.3324 17.5832 15.3606H9.39574ZM10.6987 14.2644H16.2676C16.0518 13.7024 15.6937 13.2412 15.1932 12.8806C14.6928 12.5201 14.1284 12.3398 13.4999 12.3398C12.8503 12.3398 12.275 12.5201 11.7739 12.8806C11.2729 13.2412 10.9145 13.7024 10.6987 14.2644ZM1.43262 10.5512V2.73729H5.59928V3.86062L11.3557 2.06104L17.4389 3.9327V4.22916C17.4389 4.94985 17.1761 5.56513 16.6505 6.07499C16.1248 6.58485 15.4785 6.83979 14.7114 6.83979H13.487V6.87499C13.487 7.16235 13.3287 7.50583 13.012 7.90541C12.6952 8.30499 12.3973 8.55499 12.1185 8.65541L6.77553 10.5512H1.43262ZM2.51595 9.46791H4.51595V3.82062H2.51595V9.46791ZM5.59928 9.46791H6.60574L12.0191 7.51916C12.1357 7.48013 12.229 7.41319 12.2989 7.31833C12.3687 7.22347 12.4037 7.11472 12.4037 6.99208V6.83979H9.98553L8.11053 7.55604L7.70178 6.53208L9.69387 5.75645H14.7114C14.9935 5.75645 15.318 5.65742 15.6849 5.45937C16.052 5.26131 16.2462 5.00506 16.2676 4.69062L11.3557 3.21145L5.59928 5.00645V9.46791Z" fill="#1C1B1F"/>
</g>
</svg>
