<svg width="20" height="20" viewBox="0 0 20 20" fill="none" xmlns="http://www.w3.org/2000/svg">
<path d="M2 4.7651C2 3.86907 2.59595 3.08239 3.45851 2.83979L8.72925 1.3574C9.36716 1.17799 10 1.65739 10 2.32005V18C10 18.5523 9.55229 19 9 19H3C2.44772 19 2 18.5523 2 18L2 4.7651Z" fill="#5C08B1"/>
<path d="M11 7H16C17.6569 7 19 8.34315 19 10V19H11V7Z" fill="#5C08B1"/>
<rect x="3.1875" y="6.9375" width="1.1875" height="2.375" fill="#EFCC27"/>
<rect x="3.1875" y="10.5" width="1.1875" height="2.375" fill="#EFCC27"/>
<rect x="3.1875" y="14.0625" width="1.1875" height="2.375" fill="#EFCC27"/>
<rect x="5.5625" y="6.9375" width="1.1875" height="2.375" fill="#EFCC27"/>
<rect x="5.5625" y="10.5" width="1.1875" height="2.375" fill="#EFCC27"/>
<rect x="5.5625" y="14.0625" width="1.1875" height="2.375" fill="#EFCC27"/>
<rect x="7.9375" y="6.9375" width="1.1875" height="2.375" fill="#EFCC27"/>
<rect x="7.9375" y="10.5" width="1.1875" height="2.375" fill="#EFCC27"/>
<rect x="7.9375" y="14.0625" width="1.1875" height="2.375" fill="#EFCC27"/>
</svg>
