<svg width="20" height="20" viewBox="0 0 20 20" fill="none" xmlns="http://www.w3.org/2000/svg">
<path d="M13 1.8999C15.8284 1.8999 17.2424 1.90013 18.1211 2.7788C18.9998 3.65747 19 5.07144 19 7.89983V12.1C19 14.9282 18.9998 16.3424 18.1211 17.221C17.2424 18.0996 15.8283 18.0999 13 18.0999H7C4.17168 18.0999 2.75759 18.0996 1.87891 17.221C1.00025 16.3424 1 14.9282 1 12.1V7.89983C1 5.07144 1.00023 3.65747 1.87891 2.7788C2.75759 1.90013 4.17157 1.8999 7 1.8999H13Z" fill="#5C08B1"/>
<path d="M6.40039 8.1001C6.9525 8.10031 7.40039 8.54794 7.40039 9.1001V14.5005L7.39551 14.6021C7.34443 15.1063 6.91807 15.5003 6.40039 15.5005C5.88256 15.5005 5.4564 15.1064 5.40527 14.6021L5.40039 14.5005V9.1001C5.40039 8.54781 5.84811 8.1001 6.40039 8.1001ZM13.5996 6.30029C14.1519 6.30029 14.5996 6.74801 14.5996 7.30029V14.5005L14.5947 14.6021C14.5436 15.1064 14.1174 15.5005 13.5996 15.5005C13.0819 15.5003 12.6556 15.1063 12.6045 14.6021L12.5996 14.5005V7.30029C12.5996 6.74814 13.0475 6.3005 13.5996 6.30029ZM10 9.8999C10.5523 9.8999 10.9999 10.3477 11 10.8999V14.4995C11 15.0518 10.5523 15.4995 10 15.4995C9.44772 15.4995 9 15.0518 9 14.4995V10.8999C9.00005 10.3477 9.44775 9.8999 10 9.8999Z" fill="#EFCC27"/>
</svg>
