<svg width="20" height="20" viewBox="0 0 20 20" fill="none" xmlns="http://www.w3.org/2000/svg">
<path d="M9.75 6.25C9.75 6.69313 9.74825 7.12603 9.7959 7.48047C9.84742 7.86367 9.97272 8.30085 10.3359 8.66406C10.6992 9.02728 11.1363 9.15258 11.5195 9.2041C11.874 9.25175 12.3069 9.25 12.75 9.25H16V13.5C16 15.6213 15.9998 16.6818 15.3408 17.3408C14.6818 17.9998 13.6213 18 11.5 18H8.5C6.37868 18 5.31819 17.9998 4.65918 17.3408C4.00017 16.6818 4 15.6213 4 13.5V7.5C4 5.37868 4.00017 4.31819 4.65918 3.65918C5.31819 3.00017 6.37868 3 8.5 3H9.75V6.25ZM11.75 3.01562C11.9289 3.03035 12.0698 3.05905 12.2031 3.11426C12.4786 3.22848 12.6956 3.44556 13.1289 3.87891L15.1211 5.87109C15.5544 6.30444 15.7715 6.5214 15.8857 6.79688C15.9409 6.93015 15.9687 7.07113 15.9834 7.25H12.75C12.2505 7.25 11.9763 7.2482 11.7861 7.22266C11.7835 7.2223 11.7808 7.22106 11.7783 7.2207C11.778 7.21853 11.7776 7.21612 11.7773 7.21387C11.7518 7.02368 11.75 6.7495 11.75 6.25V3.01562Z" fill="#5C08B1"/>
<path d="M7.75 11.25L12.25 11.25" stroke="#EFCC27" stroke-width="2" stroke-linecap="round"/>
<path d="M7.75 14.25L10.75 14.25" stroke="#EFCC27" stroke-width="2" stroke-linecap="round"/>
</svg>
