<svg width="20" height="20" viewBox="0 0 20 20" fill="none" xmlns="http://www.w3.org/2000/svg">
<mask id="mask0_379_1686" style="mask-type:alpha" maskUnits="userSpaceOnUse" x="0" y="0" width="20" height="20">
<rect width="20" height="20" fill="#D9D9D9"/>
</mask>
<g mask="url(#mask0_379_1686)">
<path d="M3.75654 16.5833C3.37723 16.5833 3.05911 16.4538 2.80216 16.1948C2.54522 15.9358 2.41675 15.6187 2.41675 15.2435V6.41667H3.50008V15.2435C3.50008 15.3077 3.52682 15.3665 3.58029 15.4198C3.63362 15.4733 3.69237 15.5 3.75654 15.5H15.5834V16.5833H3.75654ZM6.75654 13.5833C6.39112 13.5833 6.07647 13.4514 5.81258 13.1875C5.54869 12.9236 5.41675 12.609 5.41675 12.2435V3.41667H18.5834V12.2435C18.5834 12.609 18.4539 12.9236 18.1949 13.1875C17.9358 13.4514 17.6188 13.5833 17.2436 13.5833H6.75654ZM6.75654 12.5H17.2436C17.3078 12.5 17.3665 12.4733 17.4199 12.4198C17.4733 12.3665 17.5001 12.3077 17.5001 12.2435V4.50001H6.50008V12.2435C6.50008 12.3077 6.52682 12.3665 6.58029 12.4198C6.63362 12.4733 6.69237 12.5 6.75654 12.5ZM8.00008 11H12.0001V6.00001H8.00008V11ZM13.0001 11H16.0001V9.00001H13.0001V11ZM13.0001 8.00001H16.0001V6.00001H13.0001V8.00001Z" fill="#1C1B1F"/>
</g>
</svg>
