<svg width="20" height="20" viewBox="0 0 20 20" fill="none" xmlns="http://www.w3.org/2000/svg">
<mask id="mask0_379_1677" style="mask-type:alpha" maskUnits="userSpaceOnUse" x="0" y="0" width="20" height="20">
<rect width="20" height="20" fill="#D9D9D9"/>
</mask>
<g mask="url(#mask0_379_1677)">
<path d="M2.66528 15.4231V13.9871C2.66528 13.6718 2.74139 13.3935 2.89362 13.1521C3.04584 12.9107 3.25855 12.7102 3.53174 12.5506C4.21257 12.1494 4.92903 11.8333 5.68112 11.6025C6.43334 11.3718 7.2891 11.2565 8.24841 11.2565C9.20785 11.2565 10.0636 11.3718 10.8157 11.6025C11.5679 11.8333 12.2845 12.1494 12.9653 12.5506C13.2385 12.7102 13.4512 12.9107 13.6034 13.1521C13.7556 13.3935 13.8317 13.6718 13.8317 13.9871V15.4231H2.66528ZM15.3317 15.4231V14.0513C15.3317 13.5321 15.2326 13.0559 15.0342 12.6227C14.8358 12.1897 14.5738 11.8374 14.2484 11.5658C14.6405 11.6769 15.0286 11.8128 15.4128 11.9735C15.7968 12.1344 16.1753 12.3269 16.5482 12.5513C16.7843 12.6838 16.9745 12.8863 17.1186 13.1588C17.2628 13.4313 17.3349 13.7288 17.3349 14.0513V15.4231H15.3317ZM8.24841 9.74354C7.52966 9.74354 6.91945 9.49271 6.41778 8.99104C5.91612 8.48924 5.66528 7.87896 5.66528 7.16021C5.66528 6.44146 5.91612 5.83125 6.41778 5.32959C6.91945 4.82778 7.52966 4.57688 8.24841 4.57688C8.96716 4.57688 9.57744 4.82778 10.0792 5.32959C10.5809 5.83125 10.8317 6.44146 10.8317 7.16021C10.8317 7.87896 10.5809 8.48924 10.0792 8.99104C9.57744 9.49271 8.96716 9.74354 8.24841 9.74354ZM14.1105 7.16021C14.1105 7.87896 13.8597 8.48924 13.358 8.99104C12.8563 9.49271 12.2461 9.74354 11.5274 9.74354C11.475 9.74354 11.4456 9.74674 11.4392 9.75313C11.4327 9.75952 11.4033 9.75688 11.3511 9.74521C11.6519 9.39174 11.8906 8.99854 12.0672 8.56563C12.2435 8.13271 12.3317 7.66396 12.3317 7.15938C12.3317 6.65465 12.2417 6.18778 12.0617 5.75875C11.8817 5.32986 11.6449 4.93542 11.3511 4.57542C11.3874 4.57431 11.4167 4.57431 11.4392 4.57542C11.4616 4.57639 11.491 4.57688 11.5274 4.57688C12.2461 4.57688 12.8563 4.82778 13.358 5.32959C13.8597 5.83125 14.1105 6.44146 14.1105 7.16021ZM3.74841 14.3398H12.7484V13.9871C12.7484 13.876 12.7221 13.7783 12.6695 13.694C12.6168 13.6098 12.524 13.5313 12.3911 13.4583C11.8025 13.1047 11.1658 12.8299 10.4809 12.6338C9.79605 12.4378 9.05188 12.3398 8.24841 12.3398C7.44508 12.3398 6.70098 12.4343 6.01612 12.6233C5.33126 12.8125 4.69452 13.0908 4.10591 13.4583C3.97299 13.5296 3.88021 13.6059 3.82757 13.6873C3.7748 13.7687 3.74841 13.868 3.74841 13.9852V14.3398ZM8.25299 8.66021C8.6666 8.66021 9.01924 8.51292 9.31091 8.21833C9.60258 7.92375 9.74841 7.56958 9.74841 7.15583C9.74841 6.74208 9.60112 6.38938 9.30653 6.09771C9.01195 5.80604 8.65778 5.66021 8.24403 5.66021C7.83028 5.66021 7.47758 5.80757 7.18591 6.10229C6.89424 6.39688 6.74841 6.75104 6.74841 7.16479C6.74841 7.5784 6.89577 7.93104 7.19049 8.22271C7.48508 8.51438 7.83924 8.66021 8.25299 8.66021Z" fill="#1C1B1F"/>
</g>
</svg>
