<svg width="20" height="23" viewBox="0 0 20 23" fill="none" xmlns="http://www.w3.org/2000/svg">
<path d="M11 1C14.7712 1 16.6575 0.999352 17.8291 2.1709C19.0007 3.34247 19 5.22876 19 9V11C19 14.7712 19.0007 16.6575 17.8291 17.8291C16.6575 19.0007 14.7712 19 11 19H9C5.22877 19 3.34247 19.0007 2.1709 17.8291C0.999352 16.6575 1 14.7712 1 11V9C1 5.22877 0.999326 3.34247 2.1709 2.1709C3.34247 0.999326 5.22876 1 9 1H11Z" fill="#5C08B1"/>
<path d="M14.8296 16.3724C14.5448 15.3092 13.917 14.3698 13.0438 13.6997C12.1706 13.0297 11.1007 12.6665 10 12.6665C8.89933 12.6665 7.82942 13.0297 6.95619 13.6997C6.08297 14.3698 5.45525 15.3092 5.17037 16.3724" stroke="#EFCC27" stroke-width="2" stroke-linecap="round"/>
<circle cx="10" cy="7.33301" r="3" stroke="#EFCC27" stroke-width="2" stroke-linecap="round"/>
</svg>
