<svg width="18" height="18" viewBox="0 0 18 18" fill="none" xmlns="http://www.w3.org/2000/svg">
<rect width="18" height="18" rx="4" fill="#C30808"/>
<path d="M2.6392 12V6.18182H4.71307C5.16572 6.18182 5.54072 6.2642 5.83807 6.42898C6.13542 6.59375 6.35795 6.81913 6.50568 7.10511C6.65341 7.3892 6.72727 7.70928 6.72727 8.06534C6.72727 8.4233 6.65246 8.74527 6.50284 9.03125C6.35511 9.31534 6.13163 9.54072 5.83239 9.70739C5.53504 9.87216 5.16098 9.95455 4.71023 9.95455H3.28409V9.21023H4.63068C4.91667 9.21023 5.14867 9.16098 5.3267 9.0625C5.50473 8.96212 5.63542 8.82576 5.71875 8.65341C5.80208 8.48106 5.84375 8.28504 5.84375 8.06534C5.84375 7.84564 5.80208 7.65057 5.71875 7.48011C5.63542 7.30966 5.50379 7.17614 5.32386 7.07955C5.14583 6.98295 4.91098 6.93466 4.61932 6.93466H3.51705V12H2.6392ZM9.63991 12H7.75639V6.18182H9.69957C10.2696 6.18182 10.7592 6.2983 11.1683 6.53125C11.5774 6.76231 11.8909 7.0947 12.1087 7.52841C12.3284 7.96023 12.4382 8.47822 12.4382 9.08239C12.4382 9.68845 12.3274 10.2093 12.1058 10.6449C11.8861 11.0805 11.5679 11.4157 11.1513 11.6506C10.7346 11.8835 10.2308 12 9.63991 12ZM8.63423 11.233H9.59162C10.0348 11.233 10.4032 11.1496 10.6967 10.983C10.9903 10.8144 11.21 10.571 11.3558 10.2528C11.5017 9.93277 11.5746 9.54261 11.5746 9.08239C11.5746 8.62595 11.5017 8.23864 11.3558 7.92045C11.2119 7.60227 10.9969 7.3608 10.7109 7.19602C10.425 7.03125 10.0698 6.94886 9.6456 6.94886H8.63423V11.233ZM13.5298 12V6.18182H17.1378V6.9375H14.4077V8.71023H16.8793V9.46307H14.4077V12H13.5298Z" fill="white"/>
</svg>
