<svg width="20" height="20" viewBox="0 0 20 20" fill="none" xmlns="http://www.w3.org/2000/svg">
<mask id="mask0_379_1657" style="mask-type:alpha" maskUnits="userSpaceOnUse" x="0" y="0" width="20" height="20">
<rect width="20" height="20" fill="#D9D9D9"/>
</mask>
<g mask="url(#mask0_379_1657)">
<path d="M12.4038 17.2756H17.2757V16.6233C16.9274 16.3574 16.5454 16.1496 16.1299 16C15.7143 15.8504 15.2843 15.7756 14.8399 15.7756C14.3954 15.7756 13.9654 15.8504 13.5497 16C13.1341 16.1496 12.7522 16.3574 12.4038 16.6233V17.2756ZM14.8399 14.8398C15.1603 14.8398 15.4327 14.7276 15.6572 14.5031C15.8815 14.2788 15.9936 14.0064 15.9936 13.6858C15.9936 13.3654 15.8815 13.093 15.6572 12.8685C15.4327 12.6442 15.1603 12.5321 14.8399 12.5321C14.5193 12.5321 14.2469 12.6442 14.0226 12.8685C13.7981 13.093 13.6859 13.3654 13.6859 13.6858C13.6859 14.0064 13.7981 14.2788 14.0226 14.5031C14.2469 14.7276 14.5193 14.8398 14.8399 14.8398ZM9.968 7.41667C9.24689 7.41667 8.63606 7.66695 8.1355 8.16751C7.63495 8.66806 7.38467 9.27889 7.38467 10C7.38467 10.6432 7.58738 11.199 7.99279 11.6675C8.39835 12.136 8.90613 12.4247 9.51613 12.5335C9.5214 12.3691 9.5246 12.1819 9.52571 11.9719C9.52682 11.762 9.54175 11.5892 9.5705 11.4535C9.2405 11.3755 8.97425 11.1984 8.77175 10.9223C8.56925 10.646 8.468 10.3386 8.468 10C8.468 9.58334 8.61383 9.22917 8.9055 8.93751C9.19717 8.64584 9.55133 8.50001 9.968 8.50001C10.312 8.50001 10.6173 8.59987 10.8838 8.79959C11.1505 8.99945 11.3297 9.26174 11.4215 9.58646C11.4921 9.5641 11.5578 9.54945 11.6186 9.54251C11.6796 9.53556 11.7453 9.53209 11.8157 9.53209H12.4649C12.3697 8.93056 12.0983 8.42764 11.6507 8.02334C11.2031 7.61889 10.6422 7.41667 9.968 7.41667ZM8.76446 17.5833L8.32217 15.3365C7.96008 15.2062 7.59231 15.039 7.21883 14.835C6.8455 14.6308 6.51085 14.3963 6.21488 14.1315L4.05133 14.8542L2.81592 12.7083L4.51613 11.2131C4.48307 11.0198 4.45557 10.8224 4.43363 10.621C4.41168 10.4197 4.40071 10.2153 4.40071 10.0079C4.40071 9.80612 4.41168 9.60584 4.43363 9.40709C4.45557 9.20834 4.48307 9.0016 4.51613 8.78688L2.81592 7.27084L4.05133 5.14105L6.20675 5.87667C6.51883 5.60639 6.85488 5.37056 7.21488 5.16917C7.57488 4.96778 7.94133 4.79924 8.31425 4.66355L8.76446 2.41667H11.2357L11.678 4.67146C12.0669 4.81785 12.432 4.98639 12.7732 5.17709C13.1146 5.36778 13.444 5.60098 13.7613 5.87667L15.9488 5.16188L17.1843 7.29167L15.3078 8.91501C15.327 9.00903 15.34 9.10653 15.347 9.20751C15.3539 9.30848 15.367 9.40598 15.3863 9.50001H14.4263C14.3986 9.33334 14.3721 9.16723 14.347 9.00167C14.322 8.83598 14.2747 8.66285 14.2053 8.4823L15.8205 7.06251L15.4376 6.43751L13.4055 7.11209C13.0711 6.71681 12.671 6.38056 12.2053 6.10334C11.7395 5.82612 11.2587 5.65383 10.763 5.58646L10.3751 3.50001H9.61717L9.23717 5.57855C8.71481 5.66508 8.23196 5.83626 7.78863 6.09209C7.34515 6.34806 6.93911 6.68806 6.5705 7.11209L4.56258 6.43751L4.17967 7.06251L5.77092 8.46626C5.68758 8.7057 5.62161 8.95653 5.573 9.21876C5.52439 9.48098 5.50008 9.74403 5.50008 10.0079C5.50008 10.2804 5.52092 10.5451 5.56258 10.8021C5.60425 11.059 5.66411 11.3029 5.74217 11.5338L4.17967 12.9375L4.54175 13.5625L6.54175 12.8958C6.91675 13.335 7.35904 13.6825 7.86863 13.9383C8.37821 14.1942 8.92203 14.3718 9.50008 14.4713V17.5833H8.76446ZM12.0643 18.5192C11.8131 18.5192 11.5997 18.4313 11.424 18.2556C11.2482 18.0798 11.1603 17.8664 11.1603 17.6154V12.0642C11.1603 11.8131 11.2482 11.5997 11.424 11.424C11.5997 11.2481 11.8131 11.1602 12.0643 11.1602H17.6155C17.8665 11.1602 18.0799 11.2481 18.2557 11.424C18.4314 11.5997 18.5193 11.8131 18.5193 12.0642V17.6154C18.5193 17.8664 18.4314 18.0798 18.2557 18.2556C18.0799 18.4313 17.8665 18.5192 17.6155 18.5192H12.0643Z" fill="#101820"/>
</g>
</svg>
